# xmcd
#
# Track frame offsets:
#	150
#	20507
#	36177
#	45121
#	67298
#
# Disc length: 1178 seconds
#
# Revision: 1
# Processed by: cddbd v1.5.2PL0 Copyright (c) Steve Scherf et al.
# Submitted via: audiograbber 1.83.01
#
DISCID=3b049805
DTITLE=United Blues Experience - For Promotion Only - Not For Sale
DYEAR=1900
DGENRE=Blues
TTITLE0=You Don't Love Me
TTITLE1=Please Accept My Love
TTITLE2=Let Me Be
TTITLE3=Blinded By The Night
TTITLE4=Boje Sie/Hab keine Angst
EXTD=
EXTT0=
EXTT1=
EXTT2=
EXTT3=
EXTT4=
PLAYORDER=
